<mxfile host="app.diagrams.net" modified="2023-06-18T18:16:38.577Z" agent="Mozilla/5.0 (Windows NT 10.0; Win64; x64) AppleWebKit/537.36 (KHTML, like Gecko) Chrome/114.0.0.0 Safari/537.36" etag="Cdmm0B26UzNRW32b7Pm4" version="21.5.0" type="device">
  <diagram name="Page-1" id="JjDHJsA9zgzVDjaPldGE">
    <mxGraphModel dx="1050" dy="617" grid="1" gridSize="10" guides="1" tooltips="1" connect="1" arrows="1" fold="1" page="1" pageScale="1" pageWidth="850" pageHeight="1100" math="0" shadow="0">
      <root>
        <mxCell id="0" />
        <mxCell id="1" parent="0" />
        <mxCell id="WZHPAQMHFC7LTsEDvdTi-1" value="Idle" style="rounded=1;whiteSpace=wrap;html=1;" vertex="1" parent="1">
          <mxGeometry x="130" y="160" width="120" height="60" as="geometry" />
        </mxCell>
        <mxCell id="WZHPAQMHFC7LTsEDvdTi-2" style="edgeStyle=orthogonalEdgeStyle;rounded=0;orthogonalLoop=1;jettySize=auto;html=1;entryX=0.5;entryY=0;entryDx=0;entryDy=0;" edge="1" parent="1" source="WZHPAQMHFC7LTsEDvdTi-3" target="WZHPAQMHFC7LTsEDvdTi-1">
          <mxGeometry relative="1" as="geometry" />
        </mxCell>
        <mxCell id="WZHPAQMHFC7LTsEDvdTi-3" value="" style="ellipse;whiteSpace=wrap;html=1;aspect=fixed;fillColor=#0d0c0c;" vertex="1" parent="1">
          <mxGeometry x="70" y="90" width="30" height="30" as="geometry" />
        </mxCell>
        <mxCell id="WZHPAQMHFC7LTsEDvdTi-4" value="Plant_Position() /" style="text;html=1;align=center;verticalAlign=middle;resizable=0;points=[];autosize=1;strokeColor=none;fillColor=none;" vertex="1" parent="1">
          <mxGeometry x="200" y="110" width="110" height="30" as="geometry" />
        </mxCell>
        <mxCell id="WZHPAQMHFC7LTsEDvdTi-21" style="edgeStyle=orthogonalEdgeStyle;rounded=0;orthogonalLoop=1;jettySize=auto;html=1;" edge="1" parent="1" source="WZHPAQMHFC7LTsEDvdTi-5" target="WZHPAQMHFC7LTsEDvdTi-17">
          <mxGeometry relative="1" as="geometry" />
        </mxCell>
        <mxCell id="WZHPAQMHFC7LTsEDvdTi-5" value="Select_plant" style="rounded=1;whiteSpace=wrap;html=1;" vertex="1" parent="1">
          <mxGeometry x="380" y="160" width="180" height="60" as="geometry" />
        </mxCell>
        <mxCell id="WZHPAQMHFC7LTsEDvdTi-8" value="" style="endArrow=classic;html=1;rounded=0;exitX=1;exitY=0.5;exitDx=0;exitDy=0;entryX=0;entryY=0.5;entryDx=0;entryDy=0;" edge="1" parent="1" source="WZHPAQMHFC7LTsEDvdTi-1" target="WZHPAQMHFC7LTsEDvdTi-5">
          <mxGeometry width="50" height="50" relative="1" as="geometry">
            <mxPoint x="400" y="260" as="sourcePoint" />
            <mxPoint x="450" y="210" as="targetPoint" />
          </mxGeometry>
        </mxCell>
        <mxCell id="WZHPAQMHFC7LTsEDvdTi-13" value="Plant Observer" style="text;html=1;align=center;verticalAlign=middle;resizable=0;points=[];autosize=1;strokeColor=none;fillColor=none;fontSize=31;" vertex="1" parent="1">
          <mxGeometry x="65" y="8" width="230" height="50" as="geometry" />
        </mxCell>
        <mxCell id="WZHPAQMHFC7LTsEDvdTi-22" style="edgeStyle=orthogonalEdgeStyle;rounded=0;orthogonalLoop=1;jettySize=auto;html=1;entryX=0.5;entryY=0;entryDx=0;entryDy=0;" edge="1" parent="1" source="WZHPAQMHFC7LTsEDvdTi-17" target="WZHPAQMHFC7LTsEDvdTi-18">
          <mxGeometry relative="1" as="geometry" />
        </mxCell>
        <mxCell id="WZHPAQMHFC7LTsEDvdTi-23" style="edgeStyle=orthogonalEdgeStyle;rounded=0;orthogonalLoop=1;jettySize=auto;html=1;" edge="1" parent="1" source="WZHPAQMHFC7LTsEDvdTi-17" target="WZHPAQMHFC7LTsEDvdTi-19">
          <mxGeometry relative="1" as="geometry" />
        </mxCell>
        <mxCell id="WZHPAQMHFC7LTsEDvdTi-24" style="edgeStyle=orthogonalEdgeStyle;rounded=0;orthogonalLoop=1;jettySize=auto;html=1;" edge="1" parent="1" source="WZHPAQMHFC7LTsEDvdTi-17" target="WZHPAQMHFC7LTsEDvdTi-20">
          <mxGeometry relative="1" as="geometry" />
        </mxCell>
        <mxCell id="WZHPAQMHFC7LTsEDvdTi-17" value="Image_Classification" style="rounded=1;whiteSpace=wrap;html=1;" vertex="1" parent="1">
          <mxGeometry x="410" y="380" width="120" height="60" as="geometry" />
        </mxCell>
        <mxCell id="WZHPAQMHFC7LTsEDvdTi-25" style="edgeStyle=orthogonalEdgeStyle;rounded=0;orthogonalLoop=1;jettySize=auto;html=1;entryX=0.5;entryY=1;entryDx=0;entryDy=0;exitX=0;exitY=0.5;exitDx=0;exitDy=0;" edge="1" parent="1" source="WZHPAQMHFC7LTsEDvdTi-18">
          <mxGeometry relative="1" as="geometry">
            <mxPoint x="280" y="550" as="sourcePoint" />
            <mxPoint x="180" y="220" as="targetPoint" />
          </mxGeometry>
        </mxCell>
        <mxCell id="WZHPAQMHFC7LTsEDvdTi-18" value="Healthy_plant" style="rounded=1;whiteSpace=wrap;html=1;" vertex="1" parent="1">
          <mxGeometry x="230" y="550" width="120" height="60" as="geometry" />
        </mxCell>
        <mxCell id="WZHPAQMHFC7LTsEDvdTi-19" value="Weeder" style="rounded=1;whiteSpace=wrap;html=1;" vertex="1" parent="1">
          <mxGeometry x="410" y="610" width="120" height="60" as="geometry" />
        </mxCell>
        <mxCell id="WZHPAQMHFC7LTsEDvdTi-20" value="Crop_Protection" style="rounded=0;whiteSpace=wrap;html=1;" vertex="1" parent="1">
          <mxGeometry x="620" y="610" width="120" height="60" as="geometry" />
        </mxCell>
        <mxCell id="WZHPAQMHFC7LTsEDvdTi-26" value="Image_Capture()" style="text;html=1;align=center;verticalAlign=middle;resizable=0;points=[];autosize=1;strokeColor=none;fillColor=none;rotation=90;" vertex="1" parent="1">
          <mxGeometry x="440" y="290" width="110" height="30" as="geometry" />
        </mxCell>
        <mxCell id="WZHPAQMHFC7LTsEDvdTi-27" value="/ Weed_Identified() ?&amp;nbsp;" style="text;html=1;align=center;verticalAlign=middle;resizable=0;points=[];autosize=1;strokeColor=none;fillColor=none;rotation=90;" vertex="1" parent="1">
          <mxGeometry x="425" y="510" width="140" height="30" as="geometry" />
        </mxCell>
        <mxCell id="WZHPAQMHFC7LTsEDvdTi-28" value="/ Diseased_Plant_Identified () ?&amp;nbsp;" style="text;html=1;align=center;verticalAlign=middle;resizable=0;points=[];autosize=1;strokeColor=none;fillColor=none;rotation=90;" vertex="1" parent="1">
          <mxGeometry x="605" y="498" width="190" height="30" as="geometry" />
        </mxCell>
        <mxCell id="WZHPAQMHFC7LTsEDvdTi-29" value="Healthy_Plant_Identified () ? /" style="text;html=1;align=center;verticalAlign=middle;resizable=0;points=[];autosize=1;strokeColor=none;fillColor=none;" vertex="1" parent="1">
          <mxGeometry x="230" y="388" width="180" height="30" as="geometry" />
        </mxCell>
        <mxCell id="WZHPAQMHFC7LTsEDvdTi-30" value="Plant_Observer.Send_Ack()" style="text;html=1;align=center;verticalAlign=middle;resizable=0;points=[];autosize=1;strokeColor=none;fillColor=none;rotation=270;" vertex="1" parent="1">
          <mxGeometry x="85" y="398" width="170" height="30" as="geometry" />
        </mxCell>
      </root>
    </mxGraphModel>
  </diagram>
</mxfile>
